<mxfile host="Electron" modified="2023-10-10T19:22:49.286Z" agent="Mozilla/5.0 (Macintosh; Intel Mac OS X 10_15_7) AppleWebKit/537.36 (KHTML, like Gecko) draw.io/22.0.2 Chrome/114.0.5735.289 Electron/25.8.4 Safari/537.36" etag="00O5BcTVLde7Ylu8RVjG" version="22.0.2" type="device">
  <diagram name="Page-1" id="9lRXaMEK25ZxOnqWaD4b">
    <mxGraphModel dx="1375" dy="853" grid="1" gridSize="10" guides="1" tooltips="1" connect="1" arrows="1" fold="1" page="1" pageScale="1" pageWidth="827" pageHeight="1169" math="0" shadow="0">
      <root>
        <mxCell id="0" />
        <mxCell id="1" parent="0" />
        <mxCell id="iOJkf18ZD9CDHNZXn40F-18" value="" style="rounded=0;whiteSpace=wrap;html=1;fillColor=none;" vertex="1" parent="1">
          <mxGeometry x="90" y="10" width="680" height="680" as="geometry" />
        </mxCell>
        <mxCell id="iOJkf18ZD9CDHNZXn40F-22" value="" style="rounded=1;whiteSpace=wrap;html=1;fillColor=#60A917;strokeColor=none;" vertex="1" parent="1">
          <mxGeometry x="100" y="290" width="660" height="390" as="geometry" />
        </mxCell>
        <mxCell id="iOJkf18ZD9CDHNZXn40F-19" value="" style="rounded=1;whiteSpace=wrap;html=1;fillColor=#cce5ff;strokeColor=none;arcSize=12;" vertex="1" parent="1">
          <mxGeometry x="100" y="10" width="660" height="500" as="geometry" />
        </mxCell>
        <mxCell id="iOJkf18ZD9CDHNZXn40F-15" value="" style="shape=tape;whiteSpace=wrap;html=1;size=0.24;fillColor=#60a917;fontColor=#ffffff;strokeColor=none;points=[[0,0.35,0,0,0],[0,0.5,0,0,0],[0,0.65,0,0,0],[0.27,0.68,0,0,0],[0.75,0,0,0,0],[1,0.35,0,0,0],[1,0.5,0,0,0],[1,0.65,0,0,0]];" vertex="1" parent="1">
          <mxGeometry x="100" y="430" width="660" height="220" as="geometry" />
        </mxCell>
        <mxCell id="iOJkf18ZD9CDHNZXn40F-16" value="" style="group" vertex="1" connectable="0" parent="1">
          <mxGeometry x="330" y="20" width="430" height="283.33000000000004" as="geometry" />
        </mxCell>
        <mxCell id="iOJkf18ZD9CDHNZXn40F-14" value="" style="ellipse;whiteSpace=wrap;html=1;aspect=fixed;fillColor=#e3c800;fontColor=#000000;strokeColor=#B09500;" vertex="1" parent="iOJkf18ZD9CDHNZXn40F-16">
          <mxGeometry x="200" width="140" height="140" as="geometry" />
        </mxCell>
        <mxCell id="iOJkf18ZD9CDHNZXn40F-12" value="" style="ellipse;shape=cloud;whiteSpace=wrap;html=1;fillColor=#bac8d3;strokeColor=#52585D;strokeWidth=3;" vertex="1" parent="iOJkf18ZD9CDHNZXn40F-16">
          <mxGeometry y="50" width="260" height="173.33" as="geometry" />
        </mxCell>
        <mxCell id="iOJkf18ZD9CDHNZXn40F-13" value="" style="ellipse;shape=cloud;whiteSpace=wrap;html=1;fillColor=#bac8d3;strokeColor=#52585D;strokeWidth=3;" vertex="1" parent="iOJkf18ZD9CDHNZXn40F-16">
          <mxGeometry x="110" y="70" width="320" height="213.33" as="geometry" />
        </mxCell>
        <mxCell id="iOJkf18ZD9CDHNZXn40F-1" value="" style="whiteSpace=wrap;html=1;aspect=fixed;strokeWidth=3;fillColor=#fad7ac;strokeColor=#b46504;" vertex="1" parent="1">
          <mxGeometry x="360" y="340" width="260" height="260" as="geometry" />
        </mxCell>
        <mxCell id="iOJkf18ZD9CDHNZXn40F-2" value="" style="triangle;whiteSpace=wrap;html=1;rotation=-90;fillColor=#fad9d5;strokeColor=#ae4132;strokeWidth=3;" vertex="1" parent="1">
          <mxGeometry x="410" y="130" width="160" height="260" as="geometry" />
        </mxCell>
        <mxCell id="iOJkf18ZD9CDHNZXn40F-3" value="" style="rounded=0;whiteSpace=wrap;html=1;strokeWidth=3;fillColor=#a0522d;strokeColor=#6D1F00;fontColor=#ffffff;" vertex="1" parent="1">
          <mxGeometry x="460" y="480" width="80" height="120" as="geometry" />
        </mxCell>
        <mxCell id="iOJkf18ZD9CDHNZXn40F-4" value="" style="whiteSpace=wrap;html=1;aspect=fixed;strokeWidth=3;fillColor=#ffcccc;strokeColor=#36393d;" vertex="1" parent="1">
          <mxGeometry x="390" y="370" width="50" height="50" as="geometry" />
        </mxCell>
        <mxCell id="iOJkf18ZD9CDHNZXn40F-5" value="" style="whiteSpace=wrap;html=1;aspect=fixed;strokeWidth=3;fillColor=#ffcccc;strokeColor=#36393d;" vertex="1" parent="1">
          <mxGeometry x="540" y="370" width="50" height="50" as="geometry" />
        </mxCell>
        <mxCell id="iOJkf18ZD9CDHNZXn40F-6" value="" style="ellipse;whiteSpace=wrap;html=1;aspect=fixed;strokeWidth=3;fillColor=#C76638;fontColor=#ffffff;strokeColor=#6D1F00;" vertex="1" parent="1">
          <mxGeometry x="520" y="540" width="10" height="10" as="geometry" />
        </mxCell>
        <mxCell id="iOJkf18ZD9CDHNZXn40F-8" value="" style="shape=umlActor;verticalLabelPosition=bottom;verticalAlign=top;html=1;outlineConnect=0;strokeWidth=5;fillColor=#ffcc99;strokeColor=#36393d;" vertex="1" parent="1">
          <mxGeometry x="200" y="330" width="132.5" height="265" as="geometry" />
        </mxCell>
        <mxCell id="iOJkf18ZD9CDHNZXn40F-11" value="" style="verticalLabelPosition=bottom;verticalAlign=top;html=1;shape=mxgraph.basic.heart;fillColor=#e51400;fontColor=#ffffff;strokeColor=#B20000;" vertex="1" parent="1">
          <mxGeometry x="130" y="130" width="212.5" height="180" as="geometry" />
        </mxCell>
      </root>
    </mxGraphModel>
  </diagram>
</mxfile>
